<svg preserveAspectRatio="none" width="100%" height="100%" overflow="visible" style="display: block;" viewBox="0 0 62 70" fill="none" xmlns="http://www.w3.org/2000/svg">
<g id="logo" clip-path="url(#clip0_0_90)">
<path id="Vector" d="M51.8913 47.3645V59.3982C51.6893 59.4102 51.5197 59.4303 51.342 59.4303C37.8781 59.4303 24.4143 59.4765 10.9524 59.3942C8.13931 59.3761 5.42109 58.5643 3.12898 56.8102C1.31145 55.4198 0.23103 53.5652 0.132076 51.2324C0.0735112 49.85 0.0129275 48.4676 0.0129275 47.0872C0.00350332 36.9389 0.00350332 26.7913 0.0129275 16.6443C0.0129275 14.8982 0.447113 13.2164 1.54369 11.8099C2.54678 10.4734 3.92248 9.45954 5.49985 8.89442C6.83876 8.43027 8.22614 8.0907 9.60343 7.75515C10.0929 7.65043 10.5934 7.60589 11.0938 7.62254C24.491 7.62254 37.8869 7.62254 51.2814 7.62254H51.8691V19.6783H51.2067C41.3779 19.6783 31.5491 19.6422 21.7223 19.7045C19.3297 19.7065 16.99 20.405 14.9914 21.7138C14.1126 22.2611 13.3687 22.998 12.8147 23.8699C12.2606 24.7418 11.9106 25.7265 11.7905 26.7511C11.7314 27.1262 11.6964 27.5047 11.6855 27.8843C11.6774 31.6015 11.6774 35.3194 11.6855 39.0379C11.6855 41.3145 12.4832 43.2575 14.224 44.7584C15.5165 45.8696 17.0715 46.5005 18.7173 46.8983C20.2105 47.2384 21.7397 47.397 23.2713 47.3705C32.5797 47.3504 41.8868 47.3504 51.1926 47.3705L51.8913 47.3645Z" fill="var(--fill-0, black)"/>
<path id="Vector_2" d="M58.2513 8.64706H61.9328V10.2244H55.5593C55.3271 9.28802 55.6098 8.55664 56.2237 7.84535C57.1951 6.71612 58.0413 5.48442 59.0045 4.34715C59.4771 3.78656 59.8386 3.232 59.7639 2.48655C59.7316 2.16506 59.6972 1.79937 59.2994 1.69287C58.8672 1.57433 58.4108 1.4819 58.0433 1.83152C57.9195 1.98052 57.8442 2.16339 57.8272 2.35594C57.8087 2.6014 57.8087 2.84789 57.8272 3.09335H55.5553C55.2665 1.57231 56.0238 0.642006 57.4859 0.220053C58.744 -0.141621 59.982 -0.0793358 61.121 0.706301C61.3561 0.86525 61.5534 1.07357 61.6989 1.31658C61.8444 1.55959 61.9346 1.83138 61.9631 2.11281C62.0943 3.13153 61.9086 4.06786 61.2078 4.90373C60.2082 6.07716 59.2812 7.32695 58.2513 8.64706Z" fill="var(--fill-0, black)"/>
<path id="Vector_3" d="M40.9785 62.9922C42.2972 62.9922 43.5735 62.958 44.8478 63.0063C45.4409 63.0449 46.0273 63.1535 46.5947 63.3298C47.5236 63.593 47.9397 64.1536 47.9962 64.9252C48.0669 65.8856 47.4873 66.3718 46.6331 66.6753C46.5725 66.6974 46.5139 66.7255 46.3443 66.7978L48.5374 69.8821C47.7094 69.8821 46.9966 69.8821 46.2857 69.87C46.1908 69.87 46.0838 69.7234 46.009 69.6229C45.5405 68.9418 45.0417 68.2767 44.6318 67.5614C44.3672 67.0972 44.0481 66.9264 43.5453 67.0108C43.4322 67.0289 43.313 67.0249 43.1313 67.0349V69.8479H40.9785V62.9922ZM43.1575 65.9821C43.8118 65.9821 44.4096 66.0524 44.9751 65.9539C45.1433 65.9123 45.3005 65.8348 45.4357 65.727C45.571 65.6191 45.6812 65.4833 45.7586 65.329C45.9606 64.8146 45.7364 64.2982 45.3184 64.2139C44.6176 64.0752 43.9047 64.0371 43.1555 63.9547L43.1575 65.9821Z" fill="var(--fill-0, black)"/>
<path id="Vector_4" d="M0.84375 69.9995V62.989C1.82522 62.989 2.79457 62.989 3.7619 62.989C4.71144 62.9643 5.65765 63.1106 6.55483 63.421C7.34041 63.7164 7.63727 64.1122 7.63727 64.9481C7.63727 65.8181 7.58477 66.6922 7.64939 67.5602C7.74633 68.8823 6.99306 69.4831 5.95707 69.6177C4.28898 69.8347 2.59868 69.8789 0.84375 69.9995ZM3.03892 68.8401C3.46878 68.8623 3.89951 68.8623 4.32937 68.8401C5.13716 68.7557 5.42393 68.5146 5.432 67.962C5.44412 66.9433 5.432 65.9246 5.432 64.9059C5.432 64.5241 5.24419 64.2388 4.88472 64.1745C4.27888 64.07 3.67304 64.0379 3.03488 63.9736L3.03892 68.8401Z" fill="var(--fill-0, black)"/>
<path id="Vector_5" d="M31.9609 65.0484H29.9415C29.582 64.0176 28.0714 63.6298 27.3585 64.3753C26.8799 64.8756 26.9809 65.3397 27.6554 65.5145C28.5319 65.7436 29.4285 65.9003 30.313 66.1013C30.618 66.1716 30.9189 66.2741 31.2137 66.3725C32.0114 66.6377 32.3406 68.1387 31.658 68.9545C31.24 69.4548 30.6786 69.6436 30.0949 69.7582C28.8495 70.0223 27.5581 69.9803 26.3326 69.6356C25.7409 69.4608 25.1088 69.2519 24.8604 68.5767C24.7931 68.3421 24.7425 68.1031 24.709 67.8614H26.7143C27.0294 68.197 27.2333 68.5928 27.5383 68.7013C28.2188 68.9384 28.9782 69.0067 29.5901 68.5325C29.6965 68.411 29.7714 68.2655 29.8084 68.1086C29.8453 67.9517 29.8432 67.7882 29.8021 67.6323C29.7229 67.4854 29.6143 67.3562 29.483 67.2525C29.3517 67.1489 29.2006 67.073 29.0387 67.0296C28.029 66.7483 26.9789 66.5634 25.953 66.3082C25.2886 66.1435 24.9675 65.611 24.8968 64.9941C24.8535 64.7177 24.9009 64.4348 25.0318 64.1873C25.1627 63.9398 25.3703 63.7408 25.6238 63.6198C26.2977 63.3142 27.0138 63.111 27.7483 63.017C28.7903 62.8964 29.8607 62.9346 30.8522 63.3465C31.7408 63.7162 32.2336 64.1985 31.9609 65.0484Z" fill="var(--fill-0, black)"/>
<path id="Vector_6" d="M16.5642 67.8402H18.6907C18.6838 68.078 18.769 68.3093 18.9288 68.4862C19.0886 68.6632 19.3107 68.7722 19.549 68.7906C20.171 68.8991 20.8092 68.9313 21.3322 68.5636C21.4398 68.455 21.5191 68.3219 21.5631 68.1759C21.6071 68.0298 21.6145 67.8753 21.5846 67.7257C21.5262 67.5698 21.4348 67.4282 21.3167 67.3103C21.1986 67.1925 21.0566 67.1012 20.9 67.0426C19.9448 66.7834 18.9553 66.6608 17.994 66.4197C16.9843 66.1665 16.2855 65.2563 16.8066 64.2315C17.1499 63.5584 17.8607 63.253 18.5756 63.1164C19.7856 62.8545 21.0419 62.8938 22.2329 63.2309C23.2144 63.5343 23.9818 63.912 23.7596 65.0393H21.7179C21.2797 64.0788 20.2821 63.7111 19.3248 64.2215C19.0841 64.4024 18.9228 64.6687 18.8745 64.9649C18.8119 65.2744 19.0765 65.4552 19.3854 65.5215C20.2902 65.7104 21.203 65.8872 22.0956 66.1062C22.6489 66.2408 23.2568 66.3272 23.5557 66.9099C24.0242 67.8382 23.8242 69.096 22.7277 69.4818C20.9303 70.1168 19.1067 70.1288 17.3377 69.301C16.7278 69.0197 16.5117 68.6098 16.5642 67.8402Z" fill="var(--fill-0, black)"/>
<path id="Vector_7" d="M9.51953 63.0176H15.6991V64.0061H11.7248V65.8507H15.2387V66.8935H11.7167V68.7019H15.683V69.8452H9.51953V63.0176Z" fill="var(--fill-0, black)"/>
<path id="Vector_8" d="M39.6407 63.0238V64.0124H35.6441V65.8509H39.1641V66.8736H35.6522V68.7081H39.6286V69.8414H33.457V63.0098L39.6407 63.0238Z" fill="var(--fill-0, black)"/>
<path id="Vector_9" d="M52.7309 64.0205V69.8474H50.5297V64.0205H48.2517V63.0158H55.1179V64.0205H52.7309Z" fill="var(--fill-0, black)"/>
</g>
<defs>
<clipPath id="clip0_0_90">
<rect width="62" height="70" fill="white"/>
</clipPath>
</defs>
</svg>
