<svg preserveAspectRatio="none" width="100%" height="100%" overflow="visible" style="display: block;" viewBox="0 0 32.8516 38.3938" fill="none" xmlns="http://www.w3.org/2000/svg">
<g id="Group 1597880935">
<path id="Vector" d="M21.6033 6.05568C23.7699 3.30588 23.2699 0.3061 23.1032 0.0561183C22.8533 -0.193863 19.6035 0.3061 17.3537 3.30588C15.3538 6.05568 15.3538 9.05545 15.6038 9.30544C15.8538 9.55542 19.1035 9.30544 21.6033 6.05568Z" fill="var(--fill-0, white)"/>
<path id="Vector_2" d="M27.0187 20.0534C26.7687 16.0537 30.5184 13.5539 31.2683 13.0539V12.8039C31.2683 12.8039 28.0186 8.80424 23.2689 9.05422C20.2692 9.3042 18.7693 10.8041 16.7694 10.8041C14.2696 10.8041 12.0198 9.05422 9.26997 9.05422C7.02014 9.05422 0.520616 11.0541 0.0206528 19.5534C-0.395983 28.0528 5.60357 35.9689 7.85341 37.4688C10.1032 38.9687 11.6031 38.4687 14.1029 37.2188C15.3529 36.4689 19.3526 36.2189 21.6024 37.7188C24.3522 38.7187 28.3519 37.9687 32.8516 27.9695C32.2683 28.0528 27.2686 26.8029 27.0187 20.0534Z" fill="var(--fill-0, white)"/>
</g>
</svg>
