<svg preserveAspectRatio="none" width="100%" height="100%" overflow="visible" style="display: block;" viewBox="0 0 22 22" fill="none" xmlns="http://www.w3.org/2000/svg">
<g id="Group 1597880950">
<circle id="Ellipse 7476" cx="11" cy="11" r="11" fill="var(--fill-0, #FEE8D4)"/>
<path id="Vector" d="M9.49692 13.8212L6.26485 9.60337C6.18076 9.51741 6.06681 9.46912 5.948 9.46912C5.82919 9.46912 5.71523 9.51741 5.63114 9.60337C5.58957 9.64587 5.55659 9.69635 5.53409 9.75192C5.51158 9.8075 5.5 9.86707 5.5 9.92723C5.5 9.98739 5.51158 10.047 5.53409 10.1025C5.55659 10.1581 5.58957 10.2086 5.63114 10.2511L9.18029 14.7932C9.2218 14.836 9.27114 14.8699 9.32548 14.893C9.37982 14.9161 9.43808 14.928 9.49692 14.928C9.55577 14.928 9.61403 14.9161 9.66837 14.893C9.7227 14.8699 9.77205 14.836 9.81356 14.7932L15.5831 7.06711C15.6247 7.02461 15.6577 6.97413 15.6802 6.91856C15.7027 6.86299 15.7143 6.80342 15.7143 6.74326C15.7143 6.6831 15.7027 6.62353 15.6802 6.56796C15.6577 6.51239 15.6247 6.4619 15.5831 6.4194C15.4991 6.33344 15.3851 6.28516 15.2663 6.28516C15.1475 6.28516 15.0335 6.33344 14.9494 6.4194L9.49692 13.8212Z" fill="var(--fill-0, #FE7903)"/>
</g>
</svg>
