<svg preserveAspectRatio="none" width="100%" height="100%" overflow="visible" style="display: block;" viewBox="0 0 36 41" fill="none" xmlns="http://www.w3.org/2000/svg">
<g id="logo" clip-path="url(#clip0_0_56)">
<path id="Vector" d="M30.1309 27.7423V34.7906C30.0137 34.7977 29.9152 34.8094 29.812 34.8094C21.9943 34.8094 14.1765 34.8365 6.35999 34.7883C4.72655 34.7777 3.14823 34.3022 1.81733 33.2748C0.761991 32.4604 0.134651 31.3741 0.0771933 30.0078C0.0431879 29.1981 0.00801035 28.3884 0.00801035 27.5799C0.00253822 21.6359 0.00253822 15.6923 0.00801035 9.74905C0.00801035 8.72634 0.260118 7.7413 0.89684 6.91749C1.47928 6.13465 2.27808 5.54084 3.19396 5.20984C3.9714 4.93798 4.77697 4.73909 5.57669 4.54255C5.86089 4.48122 6.15153 4.45513 6.44207 4.46488C14.2211 4.46488 21.9993 4.46488 29.7768 4.46488H30.118V11.5261H29.7334C24.0264 11.5261 18.3193 11.505 12.6135 11.5414C11.2242 11.5426 9.86565 11.9517 8.70519 12.7183C8.19493 13.0389 7.76298 13.4705 7.44128 13.9812C7.11958 14.4919 6.91635 15.0686 6.84661 15.6687C6.8123 15.8885 6.79194 16.1102 6.78564 16.3325C6.78095 18.5097 6.78095 20.6873 6.78564 22.8653C6.78564 24.1987 7.24881 25.3368 8.2596 26.2159C9.01006 26.8667 9.91296 27.2362 10.8686 27.4693C11.7356 27.6685 12.6235 27.7613 13.5128 27.7458C18.9178 27.7341 24.3219 27.7341 29.7252 27.7458L30.1309 27.7423Z" fill="var(--fill-0, black)"/>
<path id="Vector_2" d="M33.8229 5.06404H35.9605V5.98788H32.2598C32.125 5.43946 32.2891 5.01108 32.6456 4.59446C33.2096 3.93306 33.7009 3.21163 34.2603 2.54552C34.5346 2.21717 34.7445 1.89236 34.7012 1.45574C34.6824 1.26744 34.6625 1.05325 34.4315 0.990871C34.1805 0.921435 33.9155 0.867299 33.7021 1.07208C33.6303 1.15935 33.5865 1.26646 33.5766 1.37924C33.5659 1.52301 33.5659 1.66738 33.5766 1.81115H32.2575C32.0898 0.920255 32.5295 0.375363 33.3785 0.128219C34.109 -0.0836189 34.8278 -0.0471377 35.4891 0.413021C35.6257 0.50612 35.7402 0.628139 35.8247 0.770472C35.9092 0.912806 35.9616 1.07199 35.9781 1.23683C36.0543 1.83351 35.9465 2.38194 35.5396 2.87152C34.9591 3.55881 34.4209 4.29083 33.8229 5.06404Z" fill="var(--fill-0, black)"/>
<path id="Vector_3" d="M23.7949 36.8956C24.5606 36.8956 25.3017 36.8755 26.0416 36.9038C26.386 36.9264 26.7265 36.99 27.0559 37.0933C27.5953 37.2474 27.8369 37.5758 27.8697 38.0277C27.9107 38.5903 27.5742 38.8751 27.0782 39.0528C27.043 39.0657 27.009 39.0822 26.9105 39.1245L28.184 40.9311C27.7032 40.9311 27.2893 40.9311 26.8765 40.924C26.8214 40.924 26.7593 40.8381 26.7159 40.7792C26.4438 40.3803 26.1542 39.9907 25.9162 39.5718C25.7625 39.2999 25.5773 39.1999 25.2853 39.2493C25.2196 39.2599 25.1504 39.2575 25.0449 39.2634V40.9111H23.7949V36.8956ZM25.0602 38.6467C25.4401 38.6467 25.7872 38.6879 26.1155 38.6303C26.2132 38.6059 26.3044 38.5605 26.383 38.4973C26.4615 38.4341 26.5255 38.3546 26.5705 38.2643C26.6877 37.963 26.5576 37.6605 26.3148 37.6111C25.9079 37.5299 25.494 37.5075 25.059 37.4593L25.0602 38.6467Z" fill="var(--fill-0, black)"/>
<path id="Vector_4" d="M0.490234 40.9983V36.8922C1.06012 36.8922 1.62297 36.8922 2.18464 36.8922C2.73599 36.8777 3.2854 36.9634 3.80635 37.1452C4.26249 37.3182 4.43486 37.5501 4.43486 38.0397C4.43486 38.5492 4.40437 39.0612 4.4419 39.5696C4.49818 40.344 4.0608 40.6959 3.45926 40.7747C2.49069 40.9018 1.50922 40.9277 0.490234 40.9983ZM1.76485 40.3193C2.01445 40.3323 2.26455 40.3323 2.51414 40.3193C2.98318 40.2698 3.14969 40.1286 3.15438 39.805C3.16142 39.2083 3.15438 38.6116 3.15438 38.0149C3.15438 37.7913 3.04533 37.6242 2.83661 37.5866C2.48483 37.5254 2.13305 37.5065 1.7625 37.4689L1.76485 40.3193Z" fill="var(--fill-0, black)"/>
<path id="Vector_5" d="M18.5585 38.0999H17.3859C17.1771 37.4962 16.3 37.2691 15.8861 37.7057C15.6082 37.9987 15.6668 38.2706 16.0585 38.373C16.5674 38.5071 17.088 38.5989 17.6016 38.7166C17.7787 38.7578 17.9534 38.8178 18.1246 38.8755C18.5878 39.0308 18.7789 39.91 18.3826 40.3878C18.1398 40.6808 17.8139 40.7914 17.475 40.8585C16.7518 41.0133 16.002 40.9886 15.2904 40.7867C14.9469 40.6844 14.5798 40.562 14.4356 40.1665C14.3965 40.0291 14.3671 39.8891 14.3477 39.7476H15.512C15.695 39.9441 15.8134 40.176 15.9905 40.2395C16.3856 40.3784 16.8265 40.4184 17.1818 40.1406C17.2436 40.0695 17.2871 39.9843 17.3086 39.8924C17.33 39.8005 17.3288 39.7047 17.305 39.6134C17.2589 39.5273 17.1959 39.4516 17.1197 39.3909C17.0434 39.3302 16.9557 39.2858 16.8617 39.2603C16.2754 39.0956 15.6657 38.9873 15.07 38.8378C14.6842 38.7413 14.4977 38.4295 14.4567 38.0682C14.4316 37.9063 14.4591 37.7406 14.5351 37.5956C14.6111 37.4506 14.7317 37.334 14.8788 37.2632C15.2701 37.0842 15.6859 36.9652 16.1124 36.9101C16.7175 36.8395 17.339 36.8619 17.9147 37.1031C18.4307 37.3197 18.7168 37.6021 18.5585 38.0999Z" fill="var(--fill-0, black)"/>
<path id="Vector_6" d="M9.61769 39.7342H10.8524C10.8484 39.8735 10.8979 40.0089 10.9907 40.1126C11.0835 40.2162 11.2124 40.2801 11.3508 40.2909C11.7119 40.3544 12.0825 40.3733 12.3862 40.1579C12.4487 40.0943 12.4947 40.0163 12.5202 39.9308C12.5458 39.8452 12.5501 39.7547 12.5328 39.6671C12.4988 39.5758 12.4458 39.4929 12.3772 39.4238C12.3086 39.3548 12.2261 39.3013 12.1353 39.267C11.5806 39.1152 11.006 39.0434 10.4479 38.9022C9.86158 38.7539 9.45586 38.2207 9.7584 37.6205C9.95774 37.2263 10.3705 37.0474 10.7856 36.9674C11.4882 36.814 12.2176 36.837 12.9092 37.0345C13.4791 37.2122 13.9246 37.4334 13.7957 38.0936H12.6102C12.3557 37.5311 11.7764 37.3157 11.2206 37.6147C11.0808 37.7206 10.9872 37.8766 10.9591 38.0501C10.9228 38.2313 11.0764 38.3373 11.2558 38.3761C11.7811 38.4867 12.3111 38.5903 12.8294 38.7186C13.1507 38.7974 13.5037 38.848 13.6772 39.1893C13.9493 39.733 13.8332 40.4698 13.1965 40.6957C12.1528 41.0676 11.094 41.0747 10.0668 40.5898C9.71266 40.425 9.5872 40.185 9.61769 39.7342Z" fill="var(--fill-0, black)"/>
<path id="Vector_7" d="M5.52734 36.9102H9.1155V37.4892H6.80782V38.5695H8.84815V39.1803H6.80314V40.2395H9.10612V40.9092H5.52734V36.9102Z" fill="var(--fill-0, black)"/>
<path id="Vector_8" d="M23.0163 36.9145V37.4935H20.6957V38.5704H22.7395V39.1694H20.7004V40.2439H23.0092V40.9076H19.4258V36.9062L23.0163 36.9145Z" fill="var(--fill-0, black)"/>
<path id="Vector_9" d="M30.6165 37.4966V40.9096H29.3383V37.4966H28.0156V36.9082H32.0025V37.4966H30.6165Z" fill="var(--fill-0, black)"/>
</g>
<defs>
<clipPath id="clip0_0_56">
<rect width="36" height="41" fill="white"/>
</clipPath>
</defs>
</svg>
