<svg preserveAspectRatio="none" width="100%" height="100%" overflow="visible" style="display: block;" viewBox="0 0 32.0006 34.6226" fill="none" xmlns="http://www.w3.org/2000/svg">
<g id="Group 1597880932">
<path id="Vector" d="M23.5994 22.6561L31.0157 18.5444C31.8538 18.0801 32.7325 16.8935 31.0157 15.9451L23.5947 11.8457L18.2832 17.2674L23.5994 22.6561Z" fill="var(--fill-0, #FFE300)"/>
<path id="Vector_2" d="M18.2821 17.2676L1.29102 34.6109C1.67525 34.6598 2.13671 34.5572 2.66691 34.2624L23.5992 22.6572L18.2821 17.2685V17.2676Z" fill="var(--fill-0, #FF4E54)"/>
<path id="Vector_3" d="M18.2807 17.2663L23.5921 11.8446L2.66643 0.279907C2.21156 0.0284599 1.71526 -0.0591233 1.27734 0.0397606L18.2807 17.2663Z" fill="var(--fill-0, #00F085)"/>
<path id="Vector_4" d="M18.2813 17.2666L1.27796 0.0410156C0.575409 0.19923 0 0.815135 0 2.0526V32.5418C0 33.7067 0.452041 34.527 1.2902 34.6089L18.2813 17.2666Z" fill="var(--fill-0, #00E0FF)"/>
</g>
</svg>
