<svg preserveAspectRatio="none" width="100%" height="100%" overflow="visible" style="display: block;" viewBox="0 0 214.682 209.295" fill="none" xmlns="http://www.w3.org/2000/svg">
<g id="shadows">
<g id="shadow 3" opacity="0.4" filter="url(#filter0_f_0_26)">
<path d="M56.2212 101.819C41.7144 86.9391 45.5764 62.2953 63.9398 52.5668L66.901 50.998C79.1063 44.5319 94.1126 46.879 103.761 56.7631L159.58 113.949C172.207 126.885 168.908 148.316 152.975 156.857C136.214 165.841 115.529 162.652 102.253 149.034L56.2212 101.819Z" fill="var(--fill-0, #B86B22)"/>
</g>
<g id="shadow 1" opacity="0.3" filter="url(#filter1_f_0_26)">
<path d="M50.5255 96.6719C35.9823 81.8903 39.6793 57.2901 57.9247 47.4361L66.0103 43.0692C78.2392 36.4647 93.3643 38.7641 103.078 48.7045L161.778 108.776C175.298 122.611 171.93 145.52 155.001 154.88C136.926 164.872 114.408 161.601 99.9226 146.879L50.5255 96.6719Z" fill="var(--fill-0, #B86B22)"/>
</g>
<g id="shadow 0" opacity="0.8" filter="url(#filter2_f_0_26)">
<path d="M50.6876 96.2617C36.1444 81.4802 39.8414 56.8799 58.0868 47.0259L66.1724 42.6591C78.4013 36.0545 93.5264 38.354 103.24 48.2944L161.94 108.366C175.46 122.201 172.092 145.11 155.163 154.469C137.088 164.462 114.57 161.191 100.085 146.469L50.6876 96.2617Z" fill="var(--fill-0, #B86B22)"/>
</g>
</g>
<defs>
<filter id="filter0_f_0_26" x="0" y="9.53674e-07" width="214.682" height="209.295" filterUnits="userSpaceOnUse" color-interpolation-filters="sRGB">
<feFlood flood-opacity="0" result="BackgroundImageFix"/>
<feBlend mode="normal" in="SourceGraphic" in2="BackgroundImageFix" result="shape"/>
<feGaussianBlur stdDeviation="23.6871" result="effect1_foregroundBlur_0_26"/>
</filter>
<filter id="filter1_f_0_26" x="36.0192" y="33.7675" width="139.664" height="132.419" filterUnits="userSpaceOnUse" color-interpolation-filters="sRGB">
<feFlood flood-opacity="0" result="BackgroundImageFix"/>
<feBlend mode="normal" in="SourceGraphic" in2="BackgroundImageFix" result="shape"/>
<feGaussianBlur stdDeviation="2.78018" result="effect1_foregroundBlur_0_26"/>
</filter>
<filter id="filter2_f_0_26" x="40.852" y="38.0281" width="130.322" height="123.078" filterUnits="userSpaceOnUse" color-interpolation-filters="sRGB">
<feFlood flood-opacity="0" result="BackgroundImageFix"/>
<feBlend mode="normal" in="SourceGraphic" in2="BackgroundImageFix" result="shape"/>
<feGaussianBlur stdDeviation="0.444829" result="effect1_foregroundBlur_0_26"/>
</filter>
</defs>
</svg>
