<svg preserveAspectRatio="none" width="100%" height="100%" overflow="visible" style="display: block;" viewBox="0 0 214.682 209.295" fill="none" xmlns="http://www.w3.org/2000/svg">
<g id="shadows">
<g id="shadow 3" opacity="0.4" filter="url(#filter0_f_0_22)">
<path d="M56.2212 101.819C41.7144 86.9391 45.5764 62.2953 63.9398 52.5668L66.901 50.998C79.1063 44.5319 94.1126 46.879 103.761 56.7631L159.58 113.949C172.207 126.885 168.908 148.316 152.975 156.857C136.214 165.841 115.529 162.652 102.253 149.034L56.2212 101.819Z" fill="var(--fill-0, #B86B22)"/>
</g>
<g id="shadow 1" opacity="0.3" filter="url(#filter1_f_0_22)">
<path d="M50.5274 96.6738C35.9843 81.8923 39.6813 57.292 57.9267 47.438L66.0123 43.0712C78.2411 36.4666 93.3663 38.7661 103.08 48.7065L161.78 108.778C175.3 122.613 171.932 145.522 155.003 154.881C136.928 164.874 114.409 161.603 99.9246 146.881L50.5274 96.6738Z" fill="var(--fill-0, #B86B22)"/>
</g>
<g id="shadow 0" opacity="0.8" filter="url(#filter2_f_0_22)">
<path d="M50.6895 96.2656C36.1464 81.4841 39.8434 56.8838 58.0888 47.0298L66.1744 42.663C78.4032 36.0584 93.5284 38.3579 103.242 48.2983L161.942 108.37C175.462 122.205 172.094 145.114 155.165 154.473C137.09 164.466 114.572 161.195 100.087 146.473L50.6895 96.2656Z" fill="var(--fill-0, #B86B22)"/>
</g>
</g>
<defs>
<filter id="filter0_f_0_22" x="0" y="9.53674e-07" width="214.682" height="209.295" filterUnits="userSpaceOnUse" color-interpolation-filters="sRGB">
<feFlood flood-opacity="0" result="BackgroundImageFix"/>
<feBlend mode="normal" in="SourceGraphic" in2="BackgroundImageFix" result="shape"/>
<feGaussianBlur stdDeviation="23.6871" result="effect1_foregroundBlur_0_22"/>
</filter>
<filter id="filter1_f_0_22" x="36.0211" y="33.7695" width="139.664" height="132.419" filterUnits="userSpaceOnUse" color-interpolation-filters="sRGB">
<feFlood flood-opacity="0" result="BackgroundImageFix"/>
<feBlend mode="normal" in="SourceGraphic" in2="BackgroundImageFix" result="shape"/>
<feGaussianBlur stdDeviation="2.78018" result="effect1_foregroundBlur_0_22"/>
</filter>
<filter id="filter2_f_0_22" x="40.854" y="38.032" width="130.322" height="123.078" filterUnits="userSpaceOnUse" color-interpolation-filters="sRGB">
<feFlood flood-opacity="0" result="BackgroundImageFix"/>
<feBlend mode="normal" in="SourceGraphic" in2="BackgroundImageFix" result="shape"/>
<feGaussianBlur stdDeviation="0.444829" result="effect1_foregroundBlur_0_22"/>
</filter>
</defs>
</svg>
