<svg preserveAspectRatio="none" width="100%" height="100%" overflow="visible" style="display: block;" viewBox="0 0 29.4772 30.7734" fill="none" xmlns="http://www.w3.org/2000/svg">
<g id="Group 1597880970">
<path id="Vector" d="M0.642158 5.83543L15.32 0.572463C15.3569 0.559214 15.3969 0.556959 15.4351 0.565971C15.4734 0.574983 15.5081 0.594877 15.5353 0.623244L28.9151 14.5089C28.953 14.5469 28.9742 14.5984 28.9742 14.6521C28.9742 14.7057 28.953 14.7572 28.9151 14.7953C28.8889 14.821 28.8561 14.8392 28.8203 14.8478C28.7845 14.8563 28.7471 14.8551 28.712 14.844L0.652314 6.21934C0.612402 6.20552 0.577788 6.17961 0.553289 6.14521C0.528791 6.11081 0.515625 6.06962 0.515625 6.02739C0.515625 5.98515 0.528791 5.94397 0.553289 5.90956C0.577788 5.87516 0.612402 5.84925 0.652314 5.83543H0.642158Z" fill="var(--fill-0, #FAE9DC)"/>
<path id="Vector_2" d="M28.7667 15.3601C28.6979 15.3595 28.6295 15.3493 28.5636 15.3296L0.501859 6.70492C0.322018 6.64917 0.171531 6.52455 0.0832429 6.35824C-0.00504544 6.19194 -0.0239668 5.99747 0.0306089 5.81727C0.0637945 5.71175 0.120809 5.61529 0.197242 5.53533C0.273675 5.45538 0.367476 5.39408 0.471391 5.35617L15.1492 0.10133C15.2783 0.0557703 15.4177 0.0482039 15.5509 0.079529C15.6841 0.110854 15.8055 0.179754 15.9008 0.278048L29.2806 14.1637C29.3767 14.2646 29.441 14.3914 29.4658 14.5285C29.4906 14.6656 29.4746 14.8069 29.42 14.935C29.3653 15.0632 29.2743 15.1725 29.1582 15.2494C29.0421 15.3264 28.906 15.3677 28.7667 15.3682V15.3601ZM1.67592 6.00414L27.7308 14.0113L15.3056 1.11695L1.67592 6.00414Z" fill="var(--fill-0, #600000)"/>
<path id="Vector_3" d="M0.513672 6.4668V21.4107C0.513853 21.6516 0.59187 21.8859 0.736092 22.0788C0.880314 22.2717 1.08302 22.4129 1.31398 22.4812L27.5171 30.1999C27.6822 30.2492 27.8566 30.2596 28.0264 30.2302C28.1962 30.2008 28.3569 30.1324 28.4958 30.0305C28.6348 29.9285 28.7482 29.7958 28.8272 29.6426C28.9062 29.4894 28.9486 29.3201 28.9512 29.1477V14.8538L0.513672 6.4668Z" fill="var(--fill-0, #F4C95E)"/>
<path id="Vector_4" d="M27.8341 30.7734C27.6786 30.7737 27.5239 30.7511 27.375 30.7064L1.17189 22.9877C0.832426 22.8877 0.534866 22.6797 0.324423 22.3952C0.113981 22.1107 0.0021607 21.7653 0.00595273 21.4114V5.78906L29.4591 14.4747V29.1484C29.4591 29.5794 29.2879 29.9927 28.9831 30.2975C28.6784 30.6022 28.2651 30.7734 27.8341 30.7734ZM1.02158 7.14797V21.4114C1.02145 21.543 1.06392 21.6711 1.14264 21.7765C1.22136 21.882 1.3321 21.9591 1.4583 21.9964L27.6614 29.7152C27.7509 29.7416 27.8453 29.7472 27.9372 29.7314C28.0292 29.7157 28.1163 29.679 28.1919 29.6243C28.2675 29.5695 28.3294 29.4981 28.3731 29.4156C28.4167 29.3331 28.4408 29.2417 28.4435 29.1484V15.2344L1.02158 7.14797Z" fill="var(--fill-0, #600000)"/>
<path id="Vector_5" d="M0.554688 12.5938V16.0022L28.9516 24.6594V21.253L0.554688 12.5938Z" fill="var(--fill-0, #FB5957)"/>
<path id="Vector_6" d="M29.4594 25.3469L0.046875 16.3789V11.9102L29.4594 20.8761V25.3469ZM1.0625 15.6253L28.4438 23.9738V21.6338L1.0625 13.2813V15.6253Z" fill="var(--fill-0, #600000)"/>
<path id="Vector_7" d="M12.8027 3.14844C12.8027 3.84877 13.0809 4.52043 13.5762 5.01564C14.0714 5.51086 14.743 5.78906 15.4434 5.78906C16.1437 5.78906 16.8154 5.51086 17.3106 5.01564C17.8058 4.52043 18.084 3.84877 18.084 3.14844C18.084 2.4481 17.8058 1.77645 17.3106 1.28123C16.8154 0.78602 16.1437 0.507813 15.4434 0.507813C14.743 0.507813 14.0714 0.78602 13.5762 1.28123C13.0809 1.77645 12.8027 2.4481 12.8027 3.14844Z" fill="var(--fill-0, #FB5957)"/>
<path id="Vector_8" d="M15.4434 6.29688C14.8207 6.29688 14.2119 6.11222 13.6942 5.76627C13.1764 5.42031 12.7729 4.9286 12.5346 4.35329C12.2963 3.77799 12.2339 3.14495 12.3554 2.53421C12.4769 1.92347 12.7768 1.36247 13.2171 0.922158C13.6574 0.481841 14.2184 0.181981 14.8291 0.0604978C15.4399 -0.0609853 16.0729 0.00136402 16.6482 0.239662C17.2235 0.47796 17.7152 0.881503 18.0612 1.39926C18.4071 1.91702 18.5918 2.52574 18.5918 3.14844C18.5913 3.98329 18.2594 4.7838 17.669 5.37413C17.0787 5.96446 16.2782 6.29634 15.4434 6.29688ZM15.4434 1.01563C15.0215 1.01563 14.6092 1.14071 14.2584 1.37507C13.9077 1.60943 13.6343 1.94253 13.4729 2.33225C13.3115 2.72197 13.2692 3.1508 13.3515 3.56453C13.4338 3.97825 13.637 4.35829 13.9352 4.65657C14.2335 4.95484 14.6135 5.15798 15.0273 5.24027C15.441 5.32257 15.8698 5.28033 16.2596 5.1189C16.6493 4.95747 16.9824 4.68411 17.2167 4.33337C17.4511 3.98263 17.5762 3.57027 17.5762 3.14844C17.5756 2.58295 17.3508 2.04077 16.9509 1.64091C16.551 1.24104 16.0089 1.01616 15.4434 1.01563Z" fill="var(--fill-0, #600000)"/>
<path id="Vector_9" d="M16.7322 2.76645C16.6838 2.88944 16.5893 2.98869 16.4688 3.04309C16.3483 3.0975 16.2114 3.10279 16.087 3.05782C15.9627 3.01286 15.8609 2.92119 15.8031 2.8023C15.7453 2.68341 15.7361 2.54667 15.7775 2.42114C16.3646 0.796139 17.9388 0.335045 20.2747 0.968795C20.4048 1.00408 20.5156 1.08961 20.5826 1.20655C20.6497 1.3235 20.6675 1.46229 20.6322 1.59239C20.5969 1.72249 20.5114 1.83325 20.3945 1.90029C20.2775 1.96733 20.1387 1.98518 20.0086 1.94989C18.1236 1.43598 17.106 1.72645 16.7322 2.76645Z" fill="var(--fill-0, #600000)"/>
</g>
</svg>
